<svg xmlns="http://www.w3.org/2000/svg" xmlns:xlink="http://www.w3.org/1999/xlink" width="2000" zoomAndPan="magnify" viewBox="0 0 1500 1499.999933" height="2000" preserveAspectRatio="xMidYMid meet" version="1.0"><defs><clipPath id="circle"><circle cx="50%" cy="50%" r="50%"/></clipPath><g/><clipPath id="a0e4741c2b"><rect x="0" width="691" y="0" height="1152"/></clipPath><clipPath id="d8d2ec8bb5"><rect x="0" width="673" y="0" height="1152"/></clipPath></defs><g clip-path="url(#circle)"><rect x="-150" width="1800" fill="#ffffff" y="-149.999993" height="1799.99992" fill-opacity="1"/><rect x="-150" width="1800" fill="#1b1b1b" y="-149.999993" height="1799.99992" fill-opacity="1"/><g transform="matrix(1, 0, 0, 1, 146, 174)"><g clip-path="url(#a0e4741c2b)"><g fill="#ff5f00" fill-opacity="1"><g transform="translate(0.979249, 907.464589)"><g><path d="M 688.09375 -664.375 L 688.09375 0 L 561.859375 0 L 230.640625 -403.375 L 230.640625 0 L 78.78125 0 L 78.78125 -664.375 L 205.953125 -664.375 L 536.234375 -261.015625 L 536.234375 -664.375 Z M 688.09375 -664.375 "/></g></g></g></g></g><g transform="matrix(1, 0, 0, 1, 627, 174)"><g clip-path="url(#d8d2ec8bb5)"><g fill="#ff5f00" fill-opacity="1"><g transform="translate(2.814728, 907.464589)"><g><path d="M 366.359375 -664.375 C 425.203125 -664.375 476.289062 -654.566406 519.625 -634.953125 C 562.96875 -615.335938 596.34375 -587.5 619.75 -551.4375 C 643.164062 -515.375 654.875 -472.664062 654.875 -423.3125 C 654.875 -374.59375 643.164062 -332.039062 619.75 -295.65625 C 596.34375 -259.269531 562.96875 -231.425781 519.625 -212.125 C 476.289062 -192.832031 425.203125 -183.1875 366.359375 -183.1875 L 232.53125 -183.1875 L 232.53125 0 L 78.78125 0 L 78.78125 -664.375 Z M 357.8125 -308.46875 C 404.007812 -308.46875 439.128906 -318.429688 463.171875 -338.359375 C 487.210938 -358.296875 499.234375 -386.613281 499.234375 -423.3125 C 499.234375 -460.644531 487.210938 -489.273438 463.171875 -509.203125 C 439.128906 -529.128906 404.007812 -539.09375 357.8125 -539.09375 L 232.53125 -539.09375 L 232.53125 -308.46875 Z M 357.8125 -308.46875 "/></g></g></g></g></g></g></svg>