<svg xmlns="http://www.w3.org/2000/svg" xmlns:xlink="http://www.w3.org/1999/xlink" width="2000" zoomAndPan="magnify" viewBox="0 0 1500 1499.999933" height="2000" preserveAspectRatio="xMidYMid meet" version="1.0"><defs><g/><clipPath id="b28eb2572a"><path d="M 0.878906 0.558594 L 699 0.558594 L 699 1157.839844 L 0.878906 1157.839844 Z M 0.878906 0.558594 " clip-rule="nonzero"/></clipPath><clipPath id="93805d7322"><rect x="0" width="699" y="0" height="1158"/></clipPath><clipPath id="508f2274aa"><path d="M 483 0.558594 L 1152 0.558594 L 1152 1157.839844 L 483 1157.839844 Z M 483 0.558594 " clip-rule="nonzero"/></clipPath><clipPath id="aa153f4b27"><rect x="0" width="669" y="0" height="1158"/></clipPath><clipPath id="a38b697d13"><path d="M 70 935 L 1159.601562 935 L 1159.601562 1045 L 70 1045 Z M 70 935 " clip-rule="nonzero"/></clipPath><clipPath id="2eb573492b"><rect x="0" width="1090" y="0" height="110"/></clipPath><clipPath id="af51e64af1"><rect x="0" width="1160" y="0" height="1158"/></clipPath></defs><g transform="matrix(1, 0, 0, 1, 146, 172)"><g clip-path="url(#af51e64af1)"><g clip-path="url(#b28eb2572a)"><g transform="matrix(1, 0, 0, 1, 0, 0.000000000000113687)"><g clip-path="url(#93805d7322)"><g fill="#ffffff" fill-opacity="1"><g transform="translate(0.979205, 919.320178)"><g><path d="M 688.15625 -664.421875 L 688.15625 0 L 561.90625 0 L 230.65625 -403.390625 L 230.65625 0 L 78.78125 0 L 78.78125 -664.421875 L 205.96875 -664.421875 L 536.28125 -261.015625 L 536.28125 -664.421875 Z M 688.15625 -664.421875 "/></g></g></g></g></g></g><g clip-path="url(#508f2274aa)"><g transform="matrix(1, 0, 0, 1, 483, 0.000000000000113687)"><g clip-path="url(#aa153f4b27)"><g fill="#ffffff" fill-opacity="1"><g transform="translate(0.852203, 919.320178)"><g><path d="M 366.375 -664.421875 C 425.226562 -664.421875 476.328125 -654.613281 519.671875 -635 C 563.015625 -615.382812 596.390625 -587.539062 619.796875 -551.46875 C 643.210938 -515.394531 654.921875 -472.679688 654.921875 -423.328125 C 654.921875 -374.609375 643.210938 -332.054688 619.796875 -295.671875 C 596.390625 -259.285156 563.015625 -231.441406 519.671875 -212.140625 C 476.328125 -192.835938 425.226562 -183.1875 366.375 -183.1875 L 232.546875 -183.1875 L 232.546875 0 L 78.78125 0 L 78.78125 -664.421875 Z M 357.84375 -308.484375 C 404.03125 -308.484375 439.144531 -318.445312 463.1875 -338.375 C 487.238281 -358.3125 499.265625 -386.628906 499.265625 -423.328125 C 499.265625 -460.660156 487.238281 -489.289062 463.1875 -509.21875 C 439.144531 -529.15625 404.03125 -539.125 357.84375 -539.125 L 232.546875 -539.125 L 232.546875 -308.484375 Z M 357.84375 -308.484375 "/></g></g></g></g></g></g><g clip-path="url(#a38b697d13)"><g transform="matrix(1, 0, 0, 1, 70, 935)"><g clip-path="url(#2eb573492b)"><g fill="#ff5f00" fill-opacity="1"><g transform="translate(1.391458, 83.604668)"><g><path d="M 28.421875 1.09375 C 23.398438 1.09375 18.539062 0.410156 13.84375 -0.953125 C 9.15625 -2.316406 5.390625 -4.085938 2.546875 -6.265625 L 7.53125 -17.34375 C 10.257812 -15.34375 13.5 -13.738281 17.25 -12.53125 C 21.007812 -11.320312 24.765625 -10.71875 28.515625 -10.71875 C 32.691406 -10.71875 35.78125 -11.335938 37.78125 -12.578125 C 39.78125 -13.816406 40.78125 -15.46875 40.78125 -17.53125 C 40.78125 -19.039062 40.1875 -20.296875 39 -21.296875 C 37.820312 -22.296875 36.304688 -23.097656 34.453125 -23.703125 C 32.609375 -24.304688 30.113281 -24.972656 26.96875 -25.703125 C 22.125 -26.847656 18.15625 -27.992188 15.0625 -29.140625 C 11.976562 -30.296875 9.332031 -32.144531 7.125 -34.6875 C 4.914062 -37.226562 3.8125 -40.617188 3.8125 -44.859375 C 3.8125 -48.554688 4.8125 -51.898438 6.8125 -54.890625 C 8.8125 -57.890625 11.820312 -60.265625 15.84375 -62.015625 C 19.875 -63.773438 24.796875 -64.65625 30.609375 -64.65625 C 34.660156 -64.65625 38.625 -64.171875 42.5 -63.203125 C 46.375 -62.234375 49.765625 -60.84375 52.671875 -59.03125 L 48.125 -47.859375 C 42.257812 -51.191406 36.390625 -52.859375 30.515625 -52.859375 C 26.398438 -52.859375 23.359375 -52.191406 21.390625 -50.859375 C 19.421875 -49.523438 18.4375 -47.769531 18.4375 -45.59375 C 18.4375 -43.40625 19.570312 -41.78125 21.84375 -40.71875 C 24.113281 -39.664062 27.578125 -38.625 32.234375 -37.59375 C 37.078125 -36.445312 41.039062 -35.296875 44.125 -34.140625 C 47.21875 -32.992188 49.867188 -31.175781 52.078125 -28.6875 C 54.285156 -26.207031 55.390625 -22.847656 55.390625 -18.609375 C 55.390625 -14.984375 54.375 -11.671875 52.34375 -8.671875 C 50.320312 -5.671875 47.28125 -3.289062 43.21875 -1.53125 C 39.164062 0.21875 34.234375 1.09375 28.421875 1.09375 Z M 28.421875 1.09375 "/></g></g></g><g fill="#ff5f00" fill-opacity="1"><g transform="translate(79.57545, 83.604668)"><g><path d="M 38.328125 1.09375 C 31.722656 1.09375 25.769531 -0.328125 20.46875 -3.171875 C 15.175781 -6.023438 11.03125 -9.945312 8.03125 -14.9375 C 5.039062 -19.9375 3.546875 -25.550781 3.546875 -31.78125 C 3.546875 -38.019531 5.039062 -43.632812 8.03125 -48.625 C 11.03125 -53.625 15.175781 -57.546875 20.46875 -60.390625 C 25.769531 -63.234375 31.722656 -64.65625 38.328125 -64.65625 C 44.921875 -64.65625 50.847656 -63.234375 56.109375 -60.390625 C 61.378906 -57.546875 65.53125 -53.625 68.5625 -48.625 C 71.59375 -43.632812 73.109375 -38.019531 73.109375 -31.78125 C 73.109375 -25.550781 71.59375 -19.9375 68.5625 -14.9375 C 65.53125 -9.945312 61.378906 -6.023438 56.109375 -3.171875 C 50.847656 -0.328125 44.921875 1.09375 38.328125 1.09375 Z M 38.328125 -11.4375 C 42.078125 -11.4375 45.460938 -12.300781 48.484375 -14.03125 C 51.515625 -15.757812 53.890625 -18.164062 55.609375 -21.25 C 57.335938 -24.332031 58.203125 -27.84375 58.203125 -31.78125 C 58.203125 -35.71875 57.335938 -39.226562 55.609375 -42.3125 C 53.890625 -45.40625 51.515625 -47.8125 48.484375 -49.53125 C 45.460938 -51.257812 42.078125 -52.125 38.328125 -52.125 C 34.566406 -52.125 31.171875 -51.257812 28.140625 -49.53125 C 25.117188 -47.8125 22.742188 -45.40625 21.015625 -42.3125 C 19.296875 -39.226562 18.4375 -35.71875 18.4375 -31.78125 C 18.4375 -27.84375 19.296875 -24.332031 21.015625 -21.25 C 22.742188 -18.164062 25.117188 -15.757812 28.140625 -14.03125 C 31.171875 -12.300781 34.566406 -11.4375 38.328125 -11.4375 Z M 38.328125 -11.4375 "/></g></g></g><g fill="#ff5f00" fill-opacity="1"><g transform="translate(176.463734, 83.604668)"><g><path d="M 7.53125 -63.5625 L 22.25 -63.5625 L 22.25 -11.984375 L 54.125 -11.984375 L 54.125 0 L 7.53125 0 Z M 7.53125 -63.5625 "/></g></g></g><g fill="#ff5f00" fill-opacity="1"><g transform="translate(251.560599, 83.604668)"><g><path d="M 35.78125 1.09375 C 26.695312 1.09375 19.628906 -1.414062 14.578125 -6.4375 C 9.523438 -11.46875 7 -18.644531 7 -27.96875 L 7 -63.5625 L 21.703125 -63.5625 L 21.703125 -28.515625 C 21.703125 -17.128906 26.425781 -11.4375 35.875 -11.4375 C 40.46875 -11.4375 43.972656 -12.8125 46.390625 -15.5625 C 48.816406 -18.320312 50.03125 -22.640625 50.03125 -28.515625 L 50.03125 -63.5625 L 64.5625 -63.5625 L 64.5625 -27.96875 C 64.5625 -18.644531 62.035156 -11.46875 56.984375 -6.4375 C 51.929688 -1.414062 44.863281 1.09375 35.78125 1.09375 Z M 35.78125 1.09375 "/></g></g></g><g fill="#ff5f00" fill-opacity="1"><g transform="translate(343.364211, 83.604668)"><g><path d="M 20.703125 -51.578125 L 0.359375 -51.578125 L 0.359375 -63.5625 L 55.765625 -63.5625 L 55.765625 -51.578125 L 35.421875 -51.578125 L 35.421875 0 L 20.703125 0 Z M 20.703125 -51.578125 "/></g></g></g><g fill="#ff5f00" fill-opacity="1"><g transform="translate(419.732264, 83.604668)"><g><path d="M 7.53125 -63.5625 L 22.25 -63.5625 L 22.25 0 L 7.53125 0 Z M 7.53125 -63.5625 "/></g></g></g><g fill="#ff5f00" fill-opacity="1"><g transform="translate(469.769051, 83.604668)"><g><path d="M 38.328125 1.09375 C 31.722656 1.09375 25.769531 -0.328125 20.46875 -3.171875 C 15.175781 -6.023438 11.03125 -9.945312 8.03125 -14.9375 C 5.039062 -19.9375 3.546875 -25.550781 3.546875 -31.78125 C 3.546875 -38.019531 5.039062 -43.632812 8.03125 -48.625 C 11.03125 -53.625 15.175781 -57.546875 20.46875 -60.390625 C 25.769531 -63.234375 31.722656 -64.65625 38.328125 -64.65625 C 44.921875 -64.65625 50.847656 -63.234375 56.109375 -60.390625 C 61.378906 -57.546875 65.53125 -53.625 68.5625 -48.625 C 71.59375 -43.632812 73.109375 -38.019531 73.109375 -31.78125 C 73.109375 -25.550781 71.59375 -19.9375 68.5625 -14.9375 C 65.53125 -9.945312 61.378906 -6.023438 56.109375 -3.171875 C 50.847656 -0.328125 44.921875 1.09375 38.328125 1.09375 Z M 38.328125 -11.4375 C 42.078125 -11.4375 45.460938 -12.300781 48.484375 -14.03125 C 51.515625 -15.757812 53.890625 -18.164062 55.609375 -21.25 C 57.335938 -24.332031 58.203125 -27.84375 58.203125 -31.78125 C 58.203125 -35.71875 57.335938 -39.226562 55.609375 -42.3125 C 53.890625 -45.40625 51.515625 -47.8125 48.484375 -49.53125 C 45.460938 -51.257812 42.078125 -52.125 38.328125 -52.125 C 34.566406 -52.125 31.171875 -51.257812 28.140625 -49.53125 C 25.117188 -47.8125 22.742188 -45.40625 21.015625 -42.3125 C 19.296875 -39.226562 18.4375 -35.71875 18.4375 -31.78125 C 18.4375 -27.84375 19.296875 -24.332031 21.015625 -21.25 C 22.742188 -18.164062 25.117188 -15.757812 28.140625 -14.03125 C 31.171875 -12.300781 34.566406 -11.4375 38.328125 -11.4375 Z M 38.328125 -11.4375 "/></g></g></g><g fill="#ff5f00" fill-opacity="1"><g transform="translate(566.657334, 83.604668)"><g><path d="M 65.84375 -63.5625 L 65.84375 0 L 53.765625 0 L 22.0625 -38.59375 L 22.0625 0 L 7.53125 0 L 7.53125 -63.5625 L 19.703125 -63.5625 L 51.3125 -24.96875 L 51.3125 -63.5625 Z M 65.84375 -63.5625 "/></g></g></g><g fill="#ff5f00" fill-opacity="1"><g transform="translate(660.276884, 83.604668)"><g/></g></g><g fill="#ff5f00" fill-opacity="1"><g transform="translate(706.227769, 83.604668)"><g><path d="M 50.484375 -32.78125 L 63.9375 -32.78125 L 63.9375 -7 C 60.476562 -4.394531 56.476562 -2.394531 51.9375 -1 C 47.40625 0.394531 42.835938 1.09375 38.234375 1.09375 C 31.628906 1.09375 25.691406 -0.3125 20.421875 -3.125 C 15.160156 -5.945312 11.03125 -9.851562 8.03125 -14.84375 C 5.039062 -19.84375 3.546875 -25.488281 3.546875 -31.78125 C 3.546875 -38.082031 5.039062 -43.726562 8.03125 -48.71875 C 11.03125 -53.71875 15.191406 -57.625 20.515625 -60.4375 C 25.847656 -63.25 31.84375 -64.65625 38.5 -64.65625 C 44.070312 -64.65625 49.128906 -63.71875 53.671875 -61.84375 C 58.210938 -59.96875 62.023438 -57.242188 65.109375 -53.671875 L 55.671875 -44.953125 C 51.128906 -49.734375 45.648438 -52.125 39.234375 -52.125 C 35.171875 -52.125 31.566406 -51.273438 28.421875 -49.578125 C 25.273438 -47.890625 22.820312 -45.5 21.0625 -42.40625 C 19.3125 -39.320312 18.4375 -35.78125 18.4375 -31.78125 C 18.4375 -27.84375 19.3125 -24.332031 21.0625 -21.25 C 22.820312 -18.164062 25.257812 -15.757812 28.375 -14.03125 C 31.5 -12.300781 35.054688 -11.4375 39.046875 -11.4375 C 43.285156 -11.4375 47.097656 -12.347656 50.484375 -14.171875 Z M 50.484375 -32.78125 "/></g></g></g><g fill="#ff5f00" fill-opacity="1"><g transform="translate(796.487858, 83.604668)"><g><path d="M 65.390625 0 L 65.296875 -38.140625 L 46.59375 -6.71875 L 39.953125 -6.71875 L 21.34375 -37.328125 L 21.34375 0 L 7.53125 0 L 7.53125 -63.5625 L 19.703125 -63.5625 L 43.5 -24.0625 L 66.921875 -63.5625 L 79 -63.5625 L 79.1875 0 Z M 65.390625 0 "/></g></g></g><g fill="#ff5f00" fill-opacity="1"><g transform="translate(903.454607, 83.604668)"><g><path d="M 54.21875 -33.0625 C 57.84375 -31.90625 60.6875 -29.976562 62.75 -27.28125 C 64.8125 -24.59375 65.84375 -21.28125 65.84375 -17.34375 C 65.84375 -11.769531 63.675781 -7.484375 59.34375 -4.484375 C 55.019531 -1.492188 48.707031 0 40.40625 0 L 7.53125 0 L 7.53125 -63.5625 L 38.59375 -63.5625 C 46.34375 -63.5625 52.289062 -62.078125 56.4375 -59.109375 C 60.582031 -56.148438 62.65625 -52.128906 62.65625 -47.046875 C 62.65625 -43.953125 61.910156 -41.191406 60.421875 -38.765625 C 58.941406 -36.347656 56.875 -34.445312 54.21875 -33.0625 Z M 22.15625 -52.484375 L 22.15625 -37.5 L 36.78125 -37.5 C 40.414062 -37.5 43.171875 -38.132812 45.046875 -39.40625 C 46.921875 -40.675781 47.859375 -42.554688 47.859375 -45.046875 C 47.859375 -47.523438 46.921875 -49.382812 45.046875 -50.625 C 43.171875 -51.863281 40.414062 -52.484375 36.78125 -52.484375 Z M 39.328125 -11.078125 C 43.203125 -11.078125 46.117188 -11.710938 48.078125 -12.984375 C 50.046875 -14.253906 51.03125 -16.222656 51.03125 -18.890625 C 51.03125 -24.160156 47.128906 -26.796875 39.328125 -26.796875 L 22.15625 -26.796875 L 22.15625 -11.078125 Z M 39.328125 -11.078125 "/></g></g></g><g fill="#ff5f00" fill-opacity="1"><g transform="translate(993.169864, 83.604668)"><g><path d="M 65.84375 -63.5625 L 65.84375 0 L 51.125 0 L 51.125 -26.0625 L 22.25 -26.0625 L 22.25 0 L 7.53125 0 L 7.53125 -63.5625 L 22.25 -63.5625 L 22.25 -38.5 L 51.125 -38.5 L 51.125 -63.5625 Z M 65.84375 -63.5625 "/></g></g></g></g></g></g></g></g></svg>